<svg xmlns="http://www.w3.org/2000/svg" viewBox="0 0 1400 1000">
  <defs>
    <linearGradient id="sky" x1="0" x2="1" y1="0" y2="1">
      <stop offset="0" stop-color="#0f766e"/>
      <stop offset="0.55" stop-color="#0f172a"/>
      <stop offset="1" stop-color="#0b3b3b"/>
    </linearGradient>
    <linearGradient id="glow" x1="0" x2="1" y1="0" y2="0">
      <stop offset="0" stop-color="#7dd3fc" stop-opacity="0.5"/>
      <stop offset="1" stop-color="#34d399" stop-opacity="0.2"/>
    </linearGradient>
  </defs>
  <rect width="1400" height="1000" fill="url(#sky)"/>
  <circle cx="1080" cy="160" r="120" fill="#38bdf8" opacity="0.12"/>
  <circle cx="260" cy="220" r="160" fill="#34d399" opacity="0.15"/>
  <path d="M0 760 C 220 640, 380 700, 600 640 C 840 570, 1000 640, 1400 560 L 1400 1000 L 0 1000 Z" fill="#0b1f2a" opacity="0.75"/>
  <path d="M0 820 C 260 720, 520 820, 760 760 C 1020 690, 1160 760, 1400 720 L 1400 1000 L 0 1000 Z" fill="#0b172a" opacity="0.8"/>
  <g opacity="0.35" fill="url(#glow)">
    <rect x="160" y="520" width="220" height="220" rx="18"/>
    <rect x="440" y="480" width="240" height="260" rx="18"/>
    <rect x="740" y="450" width="250" height="290" rx="18"/>
  </g>
  <g fill="#0f172a" opacity="0.6">
    <rect x="210" y="570" width="120" height="140" rx="12"/>
    <rect x="500" y="530" width="140" height="180" rx="12"/>
    <rect x="820" y="510" width="150" height="200" rx="12"/>
  </g>
</svg>
